HIERARCHY
ROOT joint_Root
{
	OFFSET 0.0 0.0 0.0
	CHANNELS 6 Xposition Yposition Zposition Zrotation Xrotation Yrotation 
	JOINT Hips
	{
		OFFSET -0.726466 93.3139 -2.00062
		CHANNELS 6 Xposition Yposition Zposition Zrotation Xrotation Yrotation 
		JOINT Spine
		{
			OFFSET 15.7357 0.0 0.0
			CHANNELS 6 Xposition Yposition Zposition Zrotation Xrotation Yrotation 
			JOINT Chest
			{
				OFFSET 8.98455 -0.406207 0.0
				CHANNELS 6 Xposition Yposition Zposition Zrotation Xrotation Yrotation 
				JOINT Neck
				{
					OFFSET 16.3773 0.0 0.0
					CHANNELS 6 Xposition Yposition Zposition Zrotation Xrotation Yrotation 
					JOINT Head
					{
						OFFSET 6.45672 0.0 0.0
						CHANNELS 6 Xposition Yposition Zposition Zrotation Xrotation Yrotation 
						End Site
						{
							OFFSET 0.0 0.0 0.0
						}
					}
				}
				JOINT Shoulder_L
				{
					OFFSET 12.9942 -0.242716 4.98039
					CHANNELS 6 Xposition Yposition Zposition Zrotation Xrotation Yrotation 
					JOINT UpperArm_L
					{
						OFFSET 5.34809 0.0 0.0
						CHANNELS 6 Xposition Yposition Zposition Zrotation Xrotation Yrotation 
						JOINT LowerArm_L
						{
							OFFSET 24.3286 1.87007e-05 0.0
							CHANNELS 6 Xposition Yposition Zposition Zrotation Xrotation Yrotation 
							JOINT Hand_L
							{
								OFFSET 22.2916 0.0 0.0
								CHANNELS 6 Xposition Yposition Zposition Zrotation Xrotation Yrotation 
								End Site
								{
									OFFSET 0.0 0.0 0.0
								}
							}
						}
					}
				}
				JOINT Shoulder_R
				{
					OFFSET 12.9945 -0.242716 -4.98039
					CHANNELS 6 Xposition Yposition Zposition Zrotation Xrotation Yrotation 
					JOINT UpperArm_R
					{
						OFFSET -5.34813 0.0 0.0
						CHANNELS 6 Xposition Yposition Zposition Zrotation Xrotation Yrotation 
						JOINT LowerArm_R
						{
							OFFSET -24.3289 0.000322201 0.0
							CHANNELS 6 Xposition Yposition Zposition Zrotation Xrotation Yrotation 
							JOINT Hand_R
							{
								OFFSET -22.2915 -0.000108084 0.0
								CHANNELS 6 Xposition Yposition Zposition Zrotation Xrotation Yrotation 
								End Site
								{
									OFFSET 0.0 0.0 0.0
								}
							}
						}
					}
				}
			}
		}
		JOINT UpperLeg_L
		{
			OFFSET -2.19248 -6.46944 0.0
			CHANNELS 6 Xposition Yposition Zposition Zrotation Xrotation Yrotation 
			JOINT LowerLeg_L
			{
				OFFSET 39.0811 0.0 -1.23785e-05
				CHANNELS 6 Xposition Yposition Zposition Zrotation Xrotation Yrotation 
				JOINT Foot_L
				{
					OFFSET 40.9854 0.0 -1.26872e-05
					CHANNELS 6 Xposition Yposition Zposition Zrotation Xrotation Yrotation 
					JOINT Toes_L
					{
						OFFSET 11.7543 0.0 0.0
						CHANNELS 6 Xposition Yposition Zposition Zrotation Xrotation Yrotation 
						End Site
						{
							OFFSET 0.0 0.0 0.0
						}
					}
				}
			}
		}
		JOINT UpperLeg_R
		{
			OFFSET -2.19251 6.46944 0.0
			CHANNELS 6 Xposition Yposition Zposition Zrotation Xrotation Yrotation 
			JOINT LowerLeg_R
			{
				OFFSET -39.0811 -0.00228153 -0.0401928
				CHANNELS 6 Xposition Yposition Zposition Zrotation Xrotation Yrotation 
				JOINT Foot_R
				{
					OFFSET -40.9854 0.0 0.0
					CHANNELS 6 Xposition Yposition Zposition Zrotation Xrotation Yrotation 
					JOINT Toes_R
					{
						OFFSET -11.7543 0.0 0.0
						CHANNELS 6 Xposition Yposition Zposition Zrotation Xrotation Yrotation 
						End Site
						{
							OFFSET 0.0 0.0 0.0
						}
					}
				}
			}
		}
	}
}
MOTION
Frames:	6
Frame Time:	0.0333333
0.000000 0.000000 0.000000 0.000000 0.000000 -0.000000 112.875000 87.852500 151.896000 88.241300 -49.659400 5.648300 15.735700 0.000005 -0.000001 89.432600 80.885900 -89.783300 8.984550 -0.406207 -0.000000 10.460900 -0.187509 -0.683860 16.377300 -0.000001 -0.000001 9.794840 -10.354700 1.106950 6.456720 -0.000001 -0.000000 4.844020 -17.735300 5.363880 12.994200 -0.242716 4.980390 -89.446400 -1.277610 -66.568400 5.348090 -0.000007 -0.000001 -56.968700 28.366200 -15.390300 24.328600 0.000019 0.000005 9.534640 12.648600 -37.490300 22.291600 -0.000001 0.000005 4.335820 5.511530 -7.005290 12.994500 -0.242716 -4.980390 89.214700 2.133070 -69.782400 -5.348130 -0.000001 -0.000004 -68.631900 31.277100 -9.828360 -24.328900 0.000322 -0.000009 1.354050 3.190620 -23.026200 -22.291500 -0.000108 -0.000004 5.840200 5.491610 -6.199120 -2.192480 -6.469440 -0.000000 -164.987000 -11.643100 -11.598900 39.081100 -0.000007 -0.000012 -0.225397 0.278993 38.934900 40.985400 -0.000006 -0.000013 -11.621900 -0.024961 -67.583000 11.754300 -0.000000 0.000003 -0.000085 -0.000896 -16.612000 -2.192510 6.469440 -0.000001 171.335000 -2.290190 172.241000 -39.081100 -0.002282 -0.040193 0.409999 -0.176068 66.599200 -40.985400 0.000008 0.000006 8.087100 -4.531470 -54.269800 -11.754300 -0.000006 -0.000006 -0.023250 -0.184665 -24.124500
0.000000 0.000000 0.000000 0.000000 0.000000 -0.000000 111.759000 88.781900 153.960000 86.302400 -52.165600 3.631540 15.735700 0.000005 -0.000001 86.169600 81.113700 -86.238500 8.984550 -0.406207 -0.000000 9.967670 -1.181150 -0.034681 16.377300 -0.000001 -0.000001 9.838560 -9.939460 0.914428 6.456720 -0.000001 -0.000000 5.037690 -16.020900 5.373400 12.994200 -0.242716 4.980390 -89.286300 -1.703430 -67.262400 5.348090 -0.000007 -0.000001 -53.942300 27.560800 -18.491800 24.328600 0.000019 0.000005 9.441300 11.545500 -39.721000 22.291600 -0.000001 0.000005 4.701520 5.516040 -7.193900 12.994500 -0.242716 -4.980390 89.324200 1.782550 -69.234100 -5.348130 -0.000001 -0.000004 -69.891700 31.420300 -6.636110 -24.328900 0.000322 -0.000009 1.416750 3.427690 -22.487800 -22.291500 -0.000108 -0.000004 5.424480 5.489820 -6.128640 -2.192480 -6.469440 -0.000000 -164.181000 -12.206100 -8.008250 39.081100 -0.000007 -0.000012 -0.206996 0.287741 35.731000 40.985400 -0.000006 -0.000013 -11.997800 -2.036800 -68.348800 11.754300 -0.000000 0.000003 -0.000146 -0.001418 -16.631500 -2.192510 6.469440 -0.000001 172.857000 0.982488 168.134000 -39.081100 -0.002282 -0.040193 0.420774 -0.178775 66.825900 -40.985400 0.000008 0.000006 6.394040 -4.114090 -54.304200 -11.754300 -0.000006 -0.000006 -0.021994 -0.178093 -23.853300
0.000000 0.000000 0.000000 0.000000 0.000000 -0.000000 110.763000 89.594100 155.909000 84.556500 -54.749500 1.432170 15.735700 0.000005 -0.000001 82.829100 81.357200 -82.623800 8.984550 -0.406207 -0.000000 9.393190 -2.142660 0.586423 16.377300 -0.000001 -0.000001 9.721700 -9.310670 0.782963 6.456720 -0.000001 -0.000000 5.085220 -14.364400 5.309870 12.994200 -0.242716 4.980390 -89.106900 -2.185090 -67.761700 5.348090 -0.000007 -0.000001 -51.419400 25.894200 -20.985500 24.328600 0.000019 0.000005 9.123640 10.239000 -42.097000 22.291600 -0.000001 0.000005 4.892160 5.520580 -7.386630 12.994500 -0.242716 -4.980390 89.560200 1.134310 -68.806700 -5.348130 -0.000001 -0.000004 -70.714200 31.425500 -3.714830 -24.328900 0.000322 -0.000009 1.612610 3.852050 -22.750200 -22.291500 -0.000108 -0.000004 4.151360 5.483990 -5.901980 -2.192480 -6.469440 -0.000000 -163.726000 -13.273700 -4.669020 39.081100 -0.000007 -0.000012 -0.177316 0.281090 32.244700 40.985400 -0.000006 -0.000013 -12.186300 -3.741980 -68.773500 11.754300 -0.000000 0.000003 -0.000171 -0.001625 -16.639100 -2.192510 6.469440 -0.000001 174.263000 4.339570 164.519000 -39.081100 -0.002282 -0.040193 0.391619 -0.185490 64.475300 -40.985400 0.000008 0.000006 4.597020 0.588236 -55.291100 -11.754300 -0.000006 -0.000006 -0.020751 -0.171415 -23.577900
0.000000 0.000000 0.000000 0.000000 0.000000 -0.000000 109.839000 90.182500 157.797000 83.058100 -57.175100 -0.703717 15.735700 0.000005 -0.000001 79.577300 81.497600 -79.115900 8.984550 -0.406207 -0.000000 8.980120 -3.055390 1.162140 16.377300 -0.000001 -0.000001 9.259710 -8.733800 0.649753 6.456720 -0.000001 -0.000000 5.156480 -12.706400 5.458550 12.994200 -0.242716 4.980390 -88.933300 -2.675770 -68.256000 5.348090 -0.000007 -0.000001 -49.076200 23.796300 -23.161000 24.328600 0.000019 0.000005 9.072620 9.283630 -44.707600 22.291600 -0.000001 0.000005 5.119620 5.529040 -7.752830 12.994500 -0.242716 -4.980390 89.747500 0.632831 -68.250200 -5.348130 -0.000001 -0.000004 -70.555700 31.556100 -1.368280 -24.328900 0.000322 -0.000009 1.951260 4.438550 -23.771800 -22.291500 -0.000108 -0.000004 3.085140 5.485940 -5.977340 -2.192480 -6.469440 -0.000000 -163.555000 -14.634700 -1.692730 39.081100 -0.000007 -0.000012 -0.143058 0.257700 29.036200 40.985400 -0.000006 -0.000013 -12.195900 -4.931310 -69.154400 11.754300 -0.000000 0.000003 -0.000207 -0.001909 -16.649500 -2.192510 6.469440 -0.000001 175.741000 8.003810 161.415000 -39.081100 -0.002282 -0.040193 0.322593 -0.183174 60.165800 -40.985400 0.000008 0.000006 3.205570 5.601640 -56.923500 -11.754300 -0.000006 -0.000006 -0.019233 -0.163005 -23.231500
0.000000 0.000000 0.000000 0.000000 0.000000 -0.000000 108.893000 90.539800 159.484000 81.554500 -59.361200 -2.952720 15.735700 0.000005 -0.000001 76.382300 81.509300 -75.640800 8.984550 -0.406207 -0.000000 8.780020 -3.971580 1.787320 16.377300 -0.000001 -0.000001 8.715710 -8.184260 0.582994 6.456720 -0.000001 -0.000000 4.936820 -11.015600 5.711930 12.994200 -0.242716 4.980390 -88.817000 -3.015970 -68.571000 5.348090 -0.000007 -0.000001 -46.446000 21.718600 -25.360300 24.328600 0.000019 0.000005 8.877660 8.265480 -47.374100 22.291600 -0.000001 0.000005 5.682930 5.533540 -7.951790 12.994500 -0.242716 -4.980390 89.810200 0.460750 -67.613500 -5.348130 -0.000001 -0.000004 -69.479600 31.755100 0.241561 -24.328900 0.000322 -0.000009 1.982580 4.201110 -25.304100 -22.291500 -0.000108 -0.000004 2.471510 5.488690 -6.084500 -2.192480 -6.469440 -0.000000 -163.364000 -16.196800 0.802110 39.081100 -0.000007 -0.000012 -0.097810 0.197759 26.316700 40.985400 -0.000006 -0.000013 -12.174600 -5.576790 -69.537100 11.754300 -0.000000 0.000003 -0.000202 -0.001869 -16.648100 -2.192510 6.469440 -0.000001 177.814000 11.655900 158.638000 -39.081100 -0.002282 -0.040193 0.233714 -0.166270 54.193700 -40.985400 0.000008 0.000006 1.754710 8.434930 -58.044900 -11.754300 -0.000006 -0.000006 -0.020573 -0.170443 -23.537800
0.000000 0.000000 0.000000 0.000000 0.000000 -0.000000 107.905000 90.589100 161.010000 80.302600 -61.320500 -4.912440 15.735700 0.000005 -0.000001 73.902800 81.425900 -72.913400 8.984550 -0.406207 -0.000000 8.773700 -4.722220 2.340390 16.377300 -0.000001 -0.000001 8.358630 -7.687840 0.662817 6.456720 -0.000001 -0.000000 4.593370 -9.521330 6.050150 12.994200 -0.242716 4.980390 -88.714100 -3.374610 -69.125500 5.348090 -0.000007 -0.000001 -44.198300 19.386200 -27.240200 24.328600 0.000019 0.000005 8.958220 7.614590 -49.949700 22.291600 -0.000001 0.000005 6.160310 5.537110 -8.111750 12.994500 -0.242716 -4.980390 89.767400 0.546276 -66.933400 -5.348130 -0.000001 -0.000004 -68.018300 31.617700 1.502910 -24.328900 0.000322 -0.000009 2.079610 4.077170 -27.066200 -22.291500 -0.000108 -0.000004 2.221800 5.490590 -6.158940 -2.192480 -6.469440 -0.000000 -163.310000 -17.727200 2.623740 39.081100 -0.000007 -0.000012 -0.064627 0.139415 24.870500 40.985400 -0.000006 -0.000013 -12.200700 -6.065930 -70.409100 11.754300 -0.000000 0.000003 -0.032982 -0.044186 -16.602800 -2.192510 6.469440 -0.000001 -179.620000 15.122900 156.111000 -39.081100 -0.002282 -0.040193 0.149569 -0.135745 47.145500 -40.985400 0.000008 0.000006 0.819417 8.834550 -58.187900 -11.754300 -0.000006 -0.000006 -0.021385 -0.174842 -23.719200
